GIL08_xslow2_RRA_states
nRows=5
nColumns=47

# SIMM Motion File Header:
name GIL08_xslow2_RRA_states
datacolumns 47
datarows 5
otherdata 1
range 0.61383000000000021000 0.61583000000000021000
endheader
time	pelvis_tx	pelvis_ty	pelvis_tz	pelvis_tilt	pelvis_list	pelvis_rotation	hip_flexion_r	hip_adduction_r	hip_rotation_r	knee_angle_r	ankle_angle_r	subtalar_angle_r	mtp_angle_r	hip_flexion_l	hip_adduction_l	hip_rotation_l	knee_angle_l	ankle_angle_l	subtalar_angle_l	mtp_angle_l	lumbar_extension	lumbar_bending	lumbar_rotation	pelvis_tx_u	pelvis_ty_u	pelvis_tz_u	pelvis_tilt_u	pelvis_list_u	pelvis_rotation_u	hip_flexion_r_u	hip_adduction_r_u	hip_rotation_r_u	knee_angle_r_u	ankle_angle_r_u	subtalar_angle_r_u	mtp_angle_r_u	hip_flexion_l_u	hip_adduction_l_u	hip_rotation_l_u	knee_angle_l_u	ankle_angle_l_u	subtalar_angle_l_u	mtp_angle_l_u	lumbar_extension_u	lumbar_bending_u	lumbar_rotation_u
      0.61383000000000021000	     -0.67006881010462116000	      0.97179614416665094000	      0.27062085560125898000	      4.49363377433708600000	     -2.15798155477265970000	     -1.35727647174282830000	     14.23167170529835000000	      1.53172210757141450000	      4.86563196840491850000	    -20.75482011710583300000	      9.27265423939257970000	     -0.00000000000000754189	      0.00000000000000049837	     -4.70971271456857020000	     -0.66813096402558547000	      7.90206084045273900000	    -10.62370909658187800000	     10.39705580983907200000	      0.00000000000004105583	      0.00000000000032620881	    -12.78971331478388700000	     -1.09089295617374300000	      6.55753487121613430000	      0.49649995047619006000	     -0.03111160822548699300	     -0.02029663145964081400	      4.23244767403942570000	     -1.06072269400632950000	     13.48256673472517900000	     22.12382253278529700000	      0.32232836766436168000	    -28.33624176552575900000	    124.09460148616660000000	    -57.98637095625677100000	     -0.00000000000003888626	     -0.00000000000001002208	    -32.72741819061774700000	     -2.33749638568573200000	     -5.76793647534278260000	     -5.96174121193298580000	     28.49866649923209700000	      0.00000000000030308539	      0.00000000000081382900	      1.82282684132307640000	     11.25913786202762200000	    -21.93868553129811600000
      0.61433000000000026000	     -0.66982051574489732000	      0.97178052936259673000	      0.27061063105305327000	      4.49574545372168450000	     -2.15850182476830280000	     -1.35050608980521840000	     14.24270720088513000000	      1.53185530589088260000	      4.85143289320018220000	    -20.69277534548001500000	      9.24354706911304900000	     -0.00000000000000756131	      0.00000000000000049314	     -4.72605090547043630000	     -0.66928061320018772000	      7.89918972687664760000	    -10.62673215116488400000	     10.41132543515900200000	      0.00000000000004120520	      0.00000000000032662176	    -12.78879685260376900000	     -1.08525125625806070000	      6.54651947698247570000	      0.49667735775428945000	     -0.03134766144509788800	     -0.02060147849962128500	      4.21425391725002110000	     -1.02045165536688340000	     13.59891563749814800000	     22.01814516114700400000	      0.21063105271184263000	    -28.45962680291074100000	    124.08437333347221000000	    -58.44195587480412300000	     -0.00000000000003909657	     -0.00000000000000967234	    -32.62526183006546200000	     -2.26115333585328090000	     -5.71597885925621710000	     -6.13055373101841190000	     28.57996428808996800000	      0.00000000000029749392	      0.00000000000080849729	      1.84297113309662720000	     11.30774061872160500000	    -22.12275411353923000000
      0.61483000000000021000	     -0.66957213287763662000	      0.97176479645284952000	      0.27060025421651124000	      4.49784801390929890000	     -2.15900210283644970000	     -1.34367760367089420000	     14.25368983378244400000	      1.53193290918567190000	      4.83717278094718580000	    -20.63073585600789900000	      9.21421265820892900000	     -0.00000000000000758100	      0.00000000000000048866	     -4.74233789823613880000	     -0.67039217474951485000	      7.89634539742087420000	    -10.62983971761503600000	     10.42563591862287400000	      0.00000000000004134980	      0.00000000000032703639	    -12.78787039687657600000	     -1.07958513708369690000	      6.53541226072314970000	      0.49685398019672350000	     -0.03158402851408173600	     -0.02090576265769968400	      4.19597411327111300000	     -0.98075911464440280000	     13.71497900532337900000	     21.91236785921740800000	      0.09995723802548704700	    -28.58037562522288900000	    124.07347177804306000000	    -58.89529207866431200000	     -0.00000000000003995585	     -0.00000000000000870464	    -32.52263661863757700000	     -2.18515470775954370000	     -5.66080639301782010000	     -6.29976985511377310000	     28.66212874375109400000	      0.00000000000029127046	      0.00000000000086445921	      1.86279604442356520000	     11.35681414243742200000	    -22.30596074766112500000
      0.61533000000000027000	     -0.66932366189739068000	      0.97174894528203926000	      0.27058972539472065000	      4.49994141384500960000	     -2.15948268096765570000	     -1.33679116067146690000	     14.26461955205956400000	      1.53195543646817020000	      4.82285296441609560000	    -20.56870198723857300000	      9.18465217337966070000	     -0.00000000000000760098	      0.00000000000000048428	     -4.75857346576366600000	     -0.67146582814751621000	      7.89352945326730730000	    -10.63303198471206600000	     10.43998770724093300000	      0.00000000000004149220	      0.00000000000032747509	    -12.78693411102282700000	     -1.07389436547341740000	      6.52421366598878190000	      0.49702980628240551000	     -0.03182070755122883700	     -0.02120942048741442400	      4.17761039304989710000	     -0.94164913185135601000	     13.83074299948893900000	     21.80649057778759200000	     -0.00967640385378746440	    -28.69844325065992400000	    124.06188901552453000000	    -59.34624965145052000000	     -0.00000000000003974193	     -0.00000000000000828330	    -32.41955358173302700000	     -2.10951761462672940000	     -5.60243734262041570000	     -6.46936792271315750000	     28.74515291539054800000	      0.00000000000029559911	      0.00000000000084916762	      1.88229414940906080000	     11.40634745926689000000	    -22.48826863096993000000
      0.61583000000000021000	     -0.66907510320727115000	      0.97173297569333494000	      0.27057904491103157000	      4.50202561079767080000	     -2.15994384964218260000	     -1.32984691291456470000	     14.27549630778700500000	      1.53192340880038350000	      4.80847479177307950000	    -20.50667408189505600000	      9.15486682654573870000	     -0.00000000000000762069	      0.00000000000000048002	     -4.77475737726864310000	     -0.67250175536657752000	      7.89074348964789250000	    -10.63630914578318400000	     10.45438121474467000000	      0.00000000000004163802	      0.00000000000032789206	    -12.78598815892515200000	     -1.06817871494123070000	      6.51292414807175750000	      0.49720481665195998000	     -0.03205769807882209000	     -0.02151238790033367300	      4.15916566828675280000	     -0.90312523781369147000	     13.94619339315110400000	     21.70051398897629700000	     -0.11825380597996853000	    -28.81378627897454000000	    124.04961684905950000000	    -59.79469873354834400000	     -0.00000000000003981835	     -0.00000000000000814160	    -32.31602337528571700000	     -2.03425862804792600000	     -5.54089099722309000000	     -6.63932725347688370000	     28.82903601487423700000	      0.00000000000029681718	      0.00000000000079404458	      1.90145504121500490000	     11.45632881259966500000	    -22.66964041353436700000
